<svg xmlns="http://www.w3.org/2000/svg" width="24" height="24" viewBox="0 0 24 24">
    <g fill="#0747A6" fill-rule="nonzero">
        <path d="M21.861 9.685l-1.543-.262a8.714 8.714 0 0 0-.62-1.497l.91-1.272a1.354 1.354 0 0 0-.148-1.75l-1.369-1.369a1.348 1.348 0 0 0-1.745-.147l-1.277.91a8.623 8.623 0 0 0-1.552-.639l-.257-1.525A1.357 1.357 0 0 0 12.919 1h-1.934c-.666 0-1.23.478-1.341 1.134l-.267 1.562a8.5 8.5 0 0 0-1.492.63l-1.263-.91a1.348 1.348 0 0 0-.79-.253 1.34 1.34 0 0 0-.96.4L3.499 4.932a1.36 1.36 0 0 0-.147 1.75l.918 1.29a8.511 8.511 0 0 0-.61 1.502l-1.526.257A1.357 1.357 0 0 0 1 11.072v1.934c0 .666.478 1.23 1.134 1.341l1.562.266a8.5 8.5 0 0 0 .63 1.493l-.906 1.259a1.354 1.354 0 0 0 .147 1.75l1.37 1.368a1.348 1.348 0 0 0 1.744.147l1.291-.918c.464.243.95.44 1.451.597l.258 1.543a1.357 1.357 0 0 0 1.34 1.134h1.939c.666 0 1.23-.477 1.341-1.134l.262-1.543a8.714 8.714 0 0 0 1.497-.62l1.272.909c.23.165.506.253.79.253.363 0 .703-.143.96-.4l1.369-1.369a1.36 1.36 0 0 0 .147-1.75l-.91-1.276c.253-.483.464-.983.62-1.498l1.544-.257a1.357 1.357 0 0 0 1.134-1.341v-1.934a1.34 1.34 0 0 0-1.125-1.34zm-.106 3.275c0 .06-.041.11-.1.12l-1.93.32a.617.617 0 0 0-.496.456 7.352 7.352 0 0 1-.799 1.924.621.621 0 0 0 .028.675l1.134 1.598a.125.125 0 0 1-.014.157l-1.368 1.368a.117.117 0 0 1-.088.037.113.113 0 0 1-.069-.023l-1.593-1.134a.62.62 0 0 0-.675-.028 7.352 7.352 0 0 1-1.925.8.61.61 0 0 0-.455.495l-.326 1.93a.119.119 0 0 1-.12.1h-1.933a.119.119 0 0 1-.12-.1l-.32-1.93a.617.617 0 0 0-.455-.496 7.635 7.635 0 0 1-1.883-.771.636.636 0 0 0-.313-.083.605.605 0 0 0-.358.115L5.97 19.633a.137.137 0 0 1-.07.023.123.123 0 0 1-.087-.036L4.445 18.25a.125.125 0 0 1-.014-.156l1.13-1.585a.629.629 0 0 0 .027-.68 7.283 7.283 0 0 1-.808-1.92.629.629 0 0 0-.496-.454l-1.943-.33a.119.119 0 0 1-.1-.12v-1.934c0-.06.04-.11.1-.12l1.915-.32a.621.621 0 0 0 .501-.46c.17-.675.432-1.327.785-1.929a.613.613 0 0 0-.032-.67L4.367 5.964a.125.125 0 0 1 .013-.156L5.75 4.44a.117.117 0 0 1 .086-.037c.028 0 .05.01.07.023l1.584 1.13a.629.629 0 0 0 .68.028 7.283 7.283 0 0 1 1.92-.809.629.629 0 0 0 .454-.496l.33-1.942c.01-.06.06-.101.12-.101h1.934c.06 0 .11.04.12.1l.32 1.916c.042.243.221.44.46.5a7.455 7.455 0 0 1 1.97.809.621.621 0 0 0 .675-.028l1.585-1.139a.137.137 0 0 1 .069-.023c.018 0 .055.005.087.037l1.369 1.369a.125.125 0 0 1 .014.156l-1.135 1.594a.62.62 0 0 0-.027.675c.358.601.624 1.249.799 1.924a.61.61 0 0 0 .496.455l1.929.326c.06.01.1.06.1.12v1.933h-.004z"/>
        <path d="M11.995 7.246a4.747 4.747 0 0 0-4.744 4.745 4.747 4.747 0 0 0 4.744 4.744 4.747 4.747 0 0 0 4.745-4.744 4.747 4.747 0 0 0-4.745-4.745zm0 8.25a3.507 3.507 0 0 1-3.504-3.505 3.507 3.507 0 0 1 3.504-3.505 3.507 3.507 0 0 1 3.505 3.505 3.507 3.507 0 0 1-3.505 3.504z"/>
    </g>
</svg>
