<svg xmlns="http://www.w3.org/2000/svg" width="24" height="24" viewBox="0 0 24 24">
    <path fill="#0747A6" fill-rule="evenodd" d="M7.496 19.5C3.998 19.5 1 17.455 1 12s2.998-7.5 6.496-7.5h10.495C20.677 4.5 23 5.833 23 9.955c0 4.121-2.011 5.545-5.01 5.545H9.496c-1.38 0-2.498-1.617-2.498-3.5s1.118-3.496 1.999-3.5h7.995v2h-6.594c-.552 0-1.401.747-1.401 1.5s.849 1.5 1.4 1.5h7.595c.662 0 1.358.031 1.827-.608.468-.64 1.171-.527 1.171-2.937 0-2.411-.703-2.163-1.171-2.802-.469-.64-1.165-.608-1.827-.608H7.496C5.29 6.545 3 8.591 3 12c0 3.41 2.29 5.455 4.497 5.455h9.495V19.5H7.496z"/>
</svg>
